<?xml version="1.0" standalone="no"?>
<!DOCTYPE svg PUBLIC "-//W3C//DTD SVG 20010904//EN"
 "http://www.w3.org/TR/2001/REC-SVG-20010904/DTD/svg10.dtd">
<svg version="1.0" xmlns="http://www.w3.org/2000/svg"
 width="844.000000pt" height="672.000000pt" viewBox="0 0 844.000000 672.000000"
 preserveAspectRatio="xMidYMid meet">

<g transform="translate(0.000000,672.000000) scale(0.100000,-0.100000)"
fill="#000000" stroke="none">
<path d="M0 3360 l0 -3360 4220 0 4220 0 0 3360 0 3360 -4220 0 -4220 0 0
-3360z m4671 1932 c68 -35 122 -110 145 -201 20 -81 15 -234 -11 -306 -54
-152 -187 -242 -343 -233 l-67 3 0 -96 c0 -91 -2 -98 -32 -148 -18 -29 -33
-58 -33 -66 0 -23 61 -66 176 -121 146 -72 219 -137 271 -242 36 -71 38 -82
38 -167 -1 -76 -5 -100 -29 -155 -44 -103 -57 -95 159 -96 186 -1 247 -9 305
-39 39 -20 77 -63 83 -91 13 -71 -50 -159 -141 -196 -55 -22 -65 -23 -317 -20
-281 3 -377 -7 -472 -48 -61 -26 -92 -57 -104 -102 -8 -32 -8 -32 -4 7 3 30
14 49 43 76 78 74 227 105 563 117 212 8 217 9 275 38 43 21 64 39 79 66 l20
37 -21 28 c-36 48 -78 56 -279 49 -99 -3 -207 -2 -240 3 -54 8 -64 6 -100 -15
-22 -12 -74 -32 -115 -44 -105 -29 -371 -62 -442 -54 -53 5 -58 8 -58 30 0 24
-1 24 -100 24 -94 0 -100 1 -100 20 0 12 7 32 16 46 30 45 69 57 201 62 l121
4 -29 46 c-37 59 -66 137 -75 201 -7 54 -14 61 -34 36 -9 -11 -11 -35 -7 -80
6 -63 6 -65 -17 -65 -13 0 -35 9 -50 21 -14 11 -30 18 -35 15 -27 -17 -121
115 -121 171 0 38 58 83 145 112 65 21 84 32 102 60 27 39 29 68 9 116 l-15
35 -80 0 c-44 0 -104 5 -133 11 -65 13 -148 39 -148 46 0 3 11 14 25 25 14 11
25 26 25 33 0 14 -66 33 -77 22 -3 -3 -7 -45 -10 -94 -7 -146 -8 -151 -50
-159 -27 -5 -38 -3 -45 10 -6 10 -22 16 -43 16 -38 0 -38 1 -55 100 -21 125
-17 117 -71 135 -118 40 -254 221 -247 330 5 72 27 84 185 101 193 21 191 20
207 58 18 42 61 76 97 76 32 0 37 11 13 31 -8 7 -27 36 -42 63 -21 41 -26 65
-26 121 0 82 19 126 67 156 66 41 142 1 197 -103 18 -34 56 -99 85 -143 l51
-80 95 3 94 3 16 67 c31 126 103 241 190 303 49 35 129 58 200 59 54 0 77 -5
120 -28z m-2876 -2717 c0 -40 0 -40 -42 -43 l-43 -3 0 -240 0 -240 -57 3 -58
3 -3 237 -2 237 -38 3 c-32 3 -37 7 -40 31 -7 57 -5 58 145 55 l138 -3 0 -40z
m960 0 c0 -39 -1 -40 -40 -45 l-40 -5 -3 -237 -2 -238 -55 0 -55 0 0 239 0
240 -42 3 c-39 3 -43 6 -46 31 -7 57 -5 58 145 55 l138 -3 0 -40z m1352 25
c69 -41 106 -191 86 -347 -20 -152 -69 -213 -172 -213 -70 0 -112 26 -142 88
-22 43 -24 60 -24 202 0 143 2 159 24 203 13 28 37 57 55 68 42 26 130 26 173
-1z m1477 -1 c31 -24 33 -48 7 -80 -16 -20 -21 -21 -34 -10 -24 20 -68 9 -91
-22 -19 -25 -21 -42 -21 -150 0 -139 12 -183 53 -194 14 -3 39 -1 55 5 31 12
40 7 67 -40 17 -29 -42 -62 -120 -66 -61 -4 -69 -2 -100 24 -55 47 -73 102
-78 240 -5 152 11 220 68 276 36 36 41 38 102 38 51 0 71 -5 92 -21z m1857 11
c60 -11 91 -36 122 -95 29 -56 37 -247 13 -327 -33 -113 -76 -141 -226 -142
l-105 -1 -3 275 c-1 151 0 280 3 287 6 16 119 17 196 3z m-6931 -161 c18 -88
37 -154 41 -147 3 7 19 72 33 143 15 72 30 138 32 148 4 14 17 17 64 17 l59 0
5 -42 c6 -42 36 -466 36 -500 0 -15 -9 -18 -59 -18 l-59 0 -7 97 c-8 109 -15
106 -40 -14 l-18 -83 -48 0 c-54 0 -48 -8 -74 113 -10 43 -20 76 -23 73 -3 -3
-8 -45 -11 -93 l-6 -88 -49 -3 c-27 -2 -54 -1 -60 1 -9 4 -7 63 6 238 9 129
17 253 17 277 l1 42 63 0 64 0 33 -161z m730 158 c0 -2 25 -126 55 -277 30
-151 55 -275 55 -277 0 -2 -27 -3 -59 -3 l-60 0 -8 43 c-8 41 -10 42 -50 45
l-41 3 -6 -45 -7 -46 -60 0 c-32 0 -59 4 -59 8 0 8 95 489 105 530 5 20 11 22
70 22 36 0 65 -1 65 -3z m965 -19 c10 -41 105 -522 105 -530 0 -4 -27 -8 -59
-8 l-60 0 -7 46 -6 45 -41 -3 c-40 -3 -42 -4 -50 -45 l-8 -43 -60 0 c-32 0
-59 1 -59 3 0 2 25 126 55 277 30 151 55 275 55 277 0 2 29 3 65 3 59 0 65 -2
70 -22z m1014 -240 c29 -145 54 -271 57 -280 5 -16 -2 -18 -55 -18 -65 0 -63
-1 -73 65 -3 16 -12 21 -45 23 l-42 3 -6 -45 -7 -46 -59 0 c-36 0 -59 4 -59
11 0 13 99 519 105 537 3 8 26 12 68 12 l64 0 52 -262z m1331 38 c0 -193 2
-227 16 -241 9 -9 21 -14 28 -12 30 10 36 54 36 265 l0 212 60 0 60 0 0 -212
c0 -231 -6 -273 -49 -320 -25 -29 -35 -32 -97 -36 -85 -6 -125 13 -154 73 -18
38 -20 61 -20 268 l0 227 60 0 60 0 0 -224z m1420 -56 l0 -280 -60 0 -60 0 0
280 0 280 60 0 60 0 0 -280z m362 43 l3 -238 63 -3 63 -3 -3 -42 -3 -42 -117
-3 -118 -3 0 286 0 285 55 0 55 0 2 -237z m636 -30 c29 -148 53 -274 52 -281
0 -9 -16 -12 -57 -10 l-57 3 -9 43 c-8 41 -9 42 -47 42 -38 0 -39 -1 -47 -42
l-9 -43 -57 -3 c-41 -2 -57 1 -57 10 -1 7 23 133 52 281 l53 267 65 0 65 0 53
-267z m1119 2 c28 -143 52 -268 53 -277 0 -15 -9 -18 -59 -18 l-59 0 -7 46 -6
45 -42 -3 c-33 -2 -42 -7 -45 -23 -10 -66 -8 -65 -73 -65 -53 0 -60 2 -55 18
3 9 28 135 57 280 l52 263 66 -3 65 -3 53 -260z"/>
<path d="M3610 4756 c-6 -8 -10 -25 -8 -38 2 -19 9 -23 38 -23 29 0 36 4 38
23 4 28 -14 52 -38 52 -10 0 -23 -7 -30 -14z"/>
<path d="M3956 4668 c-21 -30 -20 -54 4 -78 27 -27 62 -25 88 3 26 28 27 45 6
75 -10 15 -25 22 -49 22 -24 0 -39 -7 -49 -22z"/>
<path d="M3491 4214 c0 -11 3 -14 6 -6 3 7 2 16 -1 19 -3 4 -6 -2 -5 -13z"/>
<path d="M3501 4164 c0 -11 3 -14 6 -6 3 7 2 16 -1 19 -3 4 -6 -2 -5 -13z"/>
<path d="M3511 4114 c0 -11 3 -14 6 -6 3 7 2 16 -1 19 -3 4 -6 -2 -5 -13z"/>
<path d="M3521 4064 c0 -11 3 -14 6 -6 3 7 2 16 -1 19 -3 4 -6 -2 -5 -13z"/>
<path d="M3984 2484 c-22 -52 -22 -255 0 -307 19 -48 49 -50 73 -4 14 25 17
58 18 157 0 138 -12 182 -53 188 -18 3 -26 -4 -38 -34z"/>
<path d="M7360 2330 l0 -200 26 0 c67 0 85 46 85 207 0 151 -19 193 -85 193
l-26 0 0 -200z"/>
<path d="M1166 2308 c-15 -70 -16 -76 -2 -81 8 -3 17 -3 20 0 8 9 6 64 -4 88
-7 18 -8 18 -14 -7z"/>
<path d="M2125 2297 c-10 -37 -2 -72 15 -72 11 0 14 10 12 40 -4 50 -19 67
-27 32z"/>
<path d="M3090 2298 c0 -13 -3 -33 -6 -44 -4 -14 0 -23 11 -27 21 -9 29 14 21
58 -8 39 -26 48 -26 13z"/>
<path d="M6835 2279 c-5 -30 -3 -44 6 -50 22 -13 32 6 24 50 -9 52 -21 52 -30
0z"/>
<path d="M7955 2286 c-6 -36 -4 -50 6 -56 22 -14 30 -1 23 38 -11 64 -22 70
-29 18z"/>
</g>
</svg>
